#!OML:ASF F:\VICON\USERDATA\INSTALL\rory3\rory3.ASF
:FULLY-SPECIFIED
:DEGREES
3516
root -1.82704 17.6422 0.156913 8.87859 -2.49992 3.03235
lowerback 11.0689 1.43792 3.01854
upperback 2.42277 2.47863 5.4939
thorax -3.79264 1.21349 3.69391
lowerneck -20.4554 1.77532 -7.20165
upperneck 23.3874 5.99003 -3.99945
head 10.9316 1.56469 0.651154
rclavicle -4.53229e-014 -3.18055e-014
rhumerus -28.1483 -13.612 -21.5226
rradius 48.7881
rwrist 24.6738
rhand -33.9987 -1.14753
rfingers 7.12502
rthumb -7.17829 -31.0058
lclavicle -4.53229e-014 -3.18055e-014
lhumerus -46.3385 5.88876 53.9739
lradius 39.1518
lwrist 3.97105
lhand -22.8081 13.1304
lfingers 7.12502
lthumb 3.62843 43.0793
rfemur -22.5742 -0.46761 10.1657
rtibia 36.7825
rfoot -20.628 -4.06038
rtoes 6.34474
lfemur -19.9243 0.945951 -17.7362
ltibia 29.484
lfoot -13.3997 4.83311
ltoes -21.8326
3517
root -1.81912 17.6437 0.157428 8.93959 -2.19855 2.83828
lowerback 10.9001 1.5113 2.78974
upperback 2.33933 2.53999 5.35461
thorax -3.79284 1.24655 3.66952
lowerneck -20.7365 2.50364 -6.57511
upperneck 23.7973 7.03164 -4.54885
head 11.1698 1.99655 0.517115
rclavicle 7.15625e-015 -5.08889e-014
rhumerus -29.4635 -13.5564 -22.5759
rradius 49.3189
rwrist 24.348
rhand -33.6885 -1.49134
rfingers 7.12502
rthumb -6.87883 -31.3596
lclavicle 7.15625e-015 -5.08889e-014
lhumerus -45.4193 5.88989 53.3122
lradius 38.9006
lwrist 3.61856
lhand -22.7055 12.3682
lfingers 7.12502
lthumb 3.72752 42.3153
rfemur -22.4688 -0.579269 10.3799
rtibia 36.5888
rfoot -20.6446 -4.25417
rtoes 5.99335
lfemur -20.1052 0.679324 -17.5155
ltibia 29.6851
lfoot -13.4598 4.8839
ltoes -21.9778
3518
root -1.81378 17.6402 0.157052 8.9432 -1.84639 2.55397
lowerback 10.733 1.53229 2.58978
upperback 2.30207 2.53671 5.29893
thorax -3.74533 1.24777 3.72707
lowerneck -20.8678 3.22932 -6.15467
upperneck 24.1025 8.08383 -4.97748
head 11.3413 2.43654 0.461544
rclavicle 0 4.77083e-014
rhumerus -30.5306 -13.723 -23.5592
rradius 49.6242
rwrist 24.3651
rhand -33.6814 -1.1356
rfingers 7.12502
rthumb -6.87204 -31.0041
lclavicle 0 4.77083e-014
lhumerus -44.5836 5.99074 52.7051
lradius 38.8202
lwrist 3.41112
lhand -22.4626 12.2967
lfingers 7.12502
lthumb 3.96202 42.2396
rfemur -22.2794 -0.726505 10.7143
rtibia 36.3867
rfoot -20.6653 -4.32237
rtoes 6.51705
lfemur -20.2676 0.564859 -17.1918
ltibia 29.905
lfoot -13.5304 4.73313
ltoes -22.0403
3519
root -1.80892 17.6393 0.15927 8.92766 -1.51201 2.31454
lowerback 10.5908 1.55705 2.30375
upperback 2.25986 2.53216 5.25748
thorax -3.72106 1.24932 3.8481
lowerneck -20.8824 3.87521 -6.06049
upperneck 24.2525 9.03325 -5.14358
head 11.4116 2.84485 0.535629
rclavicle -1.66979e-014 -2.54444e-014
rhumerus -31.5311 -13.8092 -24.5022
rradius 49.7967
rwrist 24.3895
rhand -33.6623 -0.57516
rfingers 7.12502
rthumb -6.85362 -30.4442
lclavicle -1.66979e-014 -2.54444e-014
lhumerus -43.8263 6.13189 52.0583
lradius 38.8147
lwrist 3.37521
lhand -22.2465 12.2698
lfingers 7.12502
lthumb 4.17076 42.2087
rfemur -22.0821 -0.905138 11.0104
rtibia 36.1971
rfoot -20.6131 -4.51446
rtoes 6.28732
lfemur -20.4096 0.493319 -16.9163
ltibia 30.1033
lfoot -13.6453 4.51778
ltoes -22.1368
3520
root -1.80287 17.6398 0.163763 8.7859 -1.21186 2.00182
lowerback 10.632 1.59391 2.16219
upperback 2.17892 2.57079 5.19086
thorax -3.83363 1.2703 3.85087
lowerneck -20.9797 4.4676 -5.9361
upperneck 24.597 9.9293 -5.30742
head 11.5774 3.21671 0.603417
rclavicle 3.57812e-014 5.08889e-014
rhumerus -32.6507 -13.9203 -25.4561
rradius 50.0149
rwrist 24.5005
rhand -33.7197 -0.436218
rfingers 7.12502
rthumb -6.90898 -30.3035
lclavicle 3.57812e-014 5.08889e-014
lhumerus -43.1684 6.00725 51.4264
lradius 38.9414
lwrist 3.44339
lhand -22.0759 12.7843
lfingers 7.12502
lthumb 4.33552 42.7199
rfemur -21.7365 -1.01913 11.3768
rtibia 36.0212
rfoot -20.6647 -4.71669
rtoes 5.52575
lfemur -20.3704 0.344874 -16.5564
ltibia 30.2974
lfoot -13.7942 4.46342
ltoes -22.1929
3521
root -1.79639 17.6441 0.167238 8.67988 -0.841741 1.73816
lowerback 10.6159 1.61732 2.02744
upperback 2.09972 2.58716 5.08448
thorax -3.90935 1.28016 3.81201
lowerneck -20.9284 5.05207 -5.62818
upperneck 24.7317 10.7649 -5.63056
head 11.6586 3.57301 0.570362
rclavicle -2.62396e-014 -5.40694e-014
rhumerus -33.788 -13.846 -26.4371
rradius 50.2788
rwrist 24.2127
rhand -33.7529 -0.660179
rfingers 7.12502
rthumb -6.94105 -30.5264
lclavicle -2.62396e-014 -5.40694e-014
lhumerus -42.5206 5.77227 50.821
lradius 39.0174
lwrist 3.10389
lhand -22.8678 12.22
lfingers 7.12502
lthumb 3.57076 42.1698
rfemur -21.4053 -1.04891 11.6795
rtibia 35.8718
rfoot -20.8827 -5.00181
rtoes 5.10804
lfemur -20.3779 0.182978 -16.2489
ltibia 30.4528
lfoot -13.8765 4.32155
ltoes -22.328
3522
root -1.78766 17.643 0.170922 8.50642 -0.430562 1.5905
lowerback 10.6322 1.59475 1.75222
upperback 2.10229 2.52403 4.98382
thorax -3.91941 1.25214 3.87001
lowerneck -20.945 5.63156 -5.33213
upperneck 24.7771 11.6249 -6.05014
head 11.7334 3.92864 0.510882
rclavicle 6.36111e-015 -3.49861e-014
rhumerus -34.5943 -13.9434 -27.4437
rradius 50.2661
rwrist 24.2231
rhand -33.822 -0.737823
rfingers 7.12502
rthumb -7.00778 -30.6018
lclavicle 6.36111e-015 -3.49861e-014
lhumerus -41.8627 5.90028 50.0424
lradius 38.885
lwrist 2.78646
lhand -23.7411 9.89653
lfingers 7.12502
lthumb 2.72743 39.8588
rfemur -21.0156 -1.21591 11.8686
rtibia 35.7305
rfoot -20.8891 -5.25548
rtoes 4.75081
lfemur -20.3152 -0.0640088 -16.071
ltibia 30.5871
lfoot -13.9561 4.18397
ltoes -22.2233
3523
root -1.77802 17.6412 0.175826 8.45595 -0.0921547 1.44106
lowerback 10.5216 1.61336 1.47049
upperback 2.06319 2.51042 4.86413
thorax -3.90469 1.2489 3.90697
lowerneck -21.0653 6.0924 -5.36577
upperneck 24.9415 12.3187 -6.024
head 11.8204 4.22663 0.64325
rclavicle 3.37934e-014 5.40694e-014
rhumerus -35.4109 -14.1665 -28.3829
rradius 50.1697
rwrist 24.3306
rhand -33.8949 -0.957432
rfingers 7.12502
rthumb -7.07815 -30.8191
lclavicle 3.37934e-014 5.40694e-014
lhumerus -41.1394 5.85785 49.323
lradius 39.2491
lwrist 2.95232
lhand -22.7237 12.8352
lfingers 7.12502
lthumb 3.70995 42.7826
rfemur -20.7784 -1.42011 12.0329
rtibia 35.57
rfoot -20.9015 -5.33781
rtoes 4.80846
lfemur -20.3699 -0.258629 -15.9113
ltibia 30.7277
lfoot -14.0263 4.09066
ltoes -22.5057
3524
root -1.76934 17.642 0.180764 8.49515 0.192489 1.29243
lowerback 10.3331 1.64498 1.07381
upperback 1.95317 2.50503 4.79065
thorax -3.92836 1.25227 4.05803
lowerneck -21.1888 6.55179 -5.45505
upperneck 25.2113 13.0216 -5.92112
head 11.9381 4.52573 0.816371
rclavicle -1.39149e-014 2.06736e-014
rhumerus -36.2587 -14.2439 -29.2247
rradius 50.0996
rwrist 24.3584
rhand -33.8761 -0.615671
rfingers 7.12502
rthumb -7.05997 -30.4779
lclavicle -1.39149e-014 2.06736e-014
lhumerus -40.5051 6.01245 48.5572
lradius 39.4128
lwrist 2.9976
lhand -21.7698 15.216
lfingers 7.12502
lthumb 4.63101 45.1454
rfemur -20.6411 -1.55569 12.1759
rtibia 35.385
rfoot -20.9357 -5.38253
rtoes 4.74697
lfemur -20.5288 -0.478061 -15.7519
ltibia 30.8902
lfoot -14.0781 4.09016
ltoes -22.8653
3525
root -1.76188 17.6414 0.188355 8.42139 0.480451 1.05699
lowerback 10.158 1.6584 0.796162
upperback 1.93418 2.48467 4.7055
thorax -3.85749 1.24555 4.13189
lowerneck -21.0353 7.03012 -5.35141
upperneck 25.1355 13.6838 -6.04819
head 11.8999 4.82686 0.853744
rclavicle -7.15625e-015 -1.43125e-014
rhumerus -37.0106 -14.5943 -30.0773
rradius 50.0017
rwrist 24.5359
rhand -33.9241 0.0532429
rfingers 7.12502
rthumb -7.10634 -29.8075
lclavicle -7.15625e-015 -1.43125e-014
lhumerus -39.8486 6.19401 47.6297
lradius 39.4253
lwrist 2.93691
lhand -21.7484 14.4746
lfingers 7.12502
lthumb 4.65173 44.4035
rfemur -20.3597 -1.74576 12.4419
rtibia 35.1793
rfoot -20.8949 -5.43537
rtoes 4.69502
lfemur -20.57 -0.602092 -15.4944
ltibia 31.0797
lfoot -14.1634 3.98674
ltoes -22.9032
3526
root -1.75535 17.6407 0.19711 8.33276 0.759326 0.749778
lowerback 10.0037 1.69145 0.611886
upperback 1.92378 2.50094 4.60978
thorax -3.78718 1.25546 4.13629
lowerneck -20.7903 7.42768 -5.18051
upperneck 24.941 14.1881 -6.1929
head 11.8044 5.07329 0.842354
rclavicle -3.97569e-016 -4.77083e-015
rhumerus -37.8529 -15.0448 -30.8889
rradius 49.948
rwrist 24.608
rhand -33.9394 0.403452
rfingers 7.12502
rthumb -7.12111 -29.4567
lclavicle -3.97569e-016 -4.77083e-015
lhumerus -39.0039 6.21134 46.7021
lradius 39.4023
lwrist 3.17683
lhand -21.8252 14.4194
lfingers 7.12502
lthumb 4.57755 44.35
rfemur -20.0576 -1.93162 12.7937
rtibia 34.9844
rfoot -20.8143 -5.44985
rtoes 4.43433
lfemur -20.5893 -0.683683 -15.1476
ltibia 31.2648
lfoot -14.3283 3.82387
ltoes -22.8437
3527
root -1.7484 17.6381 0.201815 8.31738 1.02893 0.544469
lowerback 9.93876 1.71531 0.322158
upperback 1.76702 2.5023 4.47585
thorax -3.921 1.26157 4.15931
lowerneck -20.6291 7.86308 -4.62962
upperneck 25.0277 14.7711 -6.65715
head 11.9003 5.32242 0.684224
rclavicle 5.96354e-015 9.54166e-015
rhumerus -38.7688 -15.3638 -31.6569
rradius 49.8389
rwrist 24.8111
rhand -33.7795 0.243722
rfingers 7.12502
rthumb -6.96676 -29.6216
lclavicle 5.96354e-015 9.54166e-015
lhumerus -38.2242 6.69658 45.5434
lradius 39.2356
lwrist 2.98198
lhand -21.5019 15.0184
lfingers 7.12502
lthumb 4.88974 44.942
rfemur -19.8692 -2.03299 13.0197
rtibia 34.799
rfoot -20.87 -5.54179
rtoes 4.41507
lfemur -20.7116 -0.816404 -14.9031
ltibia 31.457
lfoot -14.4372 3.67657
ltoes -22.7448
3528
root -1.74108 17.6375 0.209306 8.34277 1.22111 0.439009
lowerback 9.78302 1.72567 -0.0921792
upperback 1.63657 2.46754 4.30788
thorax -3.97777 1.25099 4.22439
lowerneck -20.6516 8.31252 -4.18582
upperneck 25.1251 15.3883 -6.98679
head 12.0213 5.58622 0.60568
rclavicle -1.03368e-014 -7.95139e-015
rhumerus -39.5007 -15.7569 -32.4838
rradius 49.7102
rwrist 25.0098
rhand -33.7131 -0.111935
rfingers 7.12502
rthumb -6.90264 -29.9794
lclavicle -1.03368e-014 -7.95139e-015
lhumerus -37.5622 7.07487 44.3946
lradius 39.1158
lwrist 2.80644
lhand -21.5758 15.3478
lfingers 7.12502
lthumb 4.81838 45.273
rfemur -19.7331 -2.20003 13.1291
rtibia 34.6091
rfoot -20.8444 -5.56199
rtoes 4.68508
lfemur -20.8598 -0.757276 -14.8135
ltibia 31.6454
lfoot -14.5507 3.47646
ltoes -22.8448
3529
root -1.73249 17.6359 0.218488 8.24339 1.44052 0.239407
lowerback 9.70061 1.73638 -0.399295
upperback 1.58497 2.44548 4.18768
thorax -3.99138 1.24453 4.27644
lowerneck -20.794 8.66872 -4.01945
upperneck 25.2472 15.8983 -7.05963
head 12.1278 5.80398 0.649397
rclavicle 1.82882e-014 -1.59028e-014
rhumerus -40.3051 -16.2369 -33.2664
rradius 49.624
rwrist 24.9992
rhand -33.849 -0.10484
rfingers 7.12502
rthumb -7.03378 -29.968
lclavicle 1.82882e-014 -1.59028e-014
lhumerus -36.8258 7.31333 43.3616
lradius 38.992
lwrist 2.79146
lhand -22.4042 14.4903
lfingers 7.12502
lthumb 4.0185 44.4321
rfemur -19.4517 -2.42576 13.3368
rtibia 34.4137
rfoot -20.8078 -5.51271
rtoes 4.7587
lfemur -20.8396 -0.946836 -14.5998
ltibia 31.8189
lfoot -14.6726 3.50634
ltoes -22.8221
